<?xml version="1.0" standalone="no"?>
<!DOCTYPE svg PUBLIC "-//W3C//DTD SVG 20010904//EN"
 "http://www.w3.org/TR/2001/REC-SVG-20010904/DTD/svg10.dtd">
<svg version="1.0" xmlns="http://www.w3.org/2000/svg"
 width="700.000000pt" height="700.000000pt" viewBox="0 0 700.000000 700.000000"
 preserveAspectRatio="xMidYMid meet">
<metadata>
Created by potrace 1.11, written by Peter Selinger 2001-2013
</metadata>
<g transform="translate(0.000000,700.000000) scale(0.100000,-0.100000)"
fill="#000000" stroke="none">
<path d="M5273 6980 c-56 -25 -106 -80 -120 -132 -7 -24 -19 -90 -28 -148 -9
-58 -18 -117 -21 -131 -2 -15 -7 -47 -10 -70 -3 -24 -8 -53 -9 -64 -2 -11 -7
-40 -10 -65 -3 -25 -10 -65 -15 -90 -5 -25 -12 -68 -15 -95 -3 -28 -10 -75
-15 -105 -8 -46 -23 -143 -35 -225 -1 -11 -10 -65 -19 -120 -8 -55 -18 -118
-21 -140 -4 -22 -8 -51 -11 -65 -2 -14 -7 -46 -10 -71 -3 -26 -9 -50 -13 -55
-6 -9 -34 -29 -271 -189 -80 -54 -172 -117 -204 -139 -32 -23 -111 -76 -175
-120 -212 -144 -424 -288 -581 -396 -85 -58 -231 -158 -325 -222 -93 -63 -217
-148 -275 -187 -58 -40 -168 -115 -245 -167 -77 -52 -232 -158 -345 -234
l-205 -140 -1043 -1042 c-722 -722 -1057 -1063 -1086 -1108 -112 -167 -158
-307 -160 -485 -1 -144 7 -211 38 -302 97 -286 308 -507 586 -614 277 -108
592 -65 844 115 34 24 526 508 1094 1076 l1033 1032 96 142 c53 77 115 168
138 201 23 33 81 119 130 190 49 72 116 171 150 220 34 50 110 162 170 250 60
88 161 237 225 330 64 94 161 235 215 315 54 80 137 201 184 270 96 141 217
317 382 561 62 91 118 166 123 166 6 0 43 6 81 12 170 28 254 42 290 47 34 4
172 25 195 29 8 1 37 6 63 9 27 4 59 9 70 12 12 2 42 7 67 10 25 3 52 7 60 9
8 2 38 7 65 10 28 3 75 10 105 15 81 14 110 18 160 25 25 3 52 8 60 10 14 4
42 8 128 20 116 17 155 38 201 106 27 38 35 61 37 102 5 112 44 67 -761 873
-407 408 -756 749 -775 759 -50 26 -136 28 -187 5z"/>
</g>
</svg>
