<?xml version="1.0" standalone="no"?>
<!DOCTYPE svg PUBLIC "-//W3C//DTD SVG 20010904//EN"
 "http://www.w3.org/TR/2001/REC-SVG-20010904/DTD/svg10.dtd">
<svg version="1.0" xmlns="http://www.w3.org/2000/svg"
 width="1707.000000pt" height="1707.000000pt" viewBox="0 0 1707.000000 1707.000000"
 preserveAspectRatio="xMidYMid meet">
<metadata>
Created by potrace 1.11, written by Peter Selinger 2001-2013
</metadata>
<g transform="translate(0.000000,1707.000000) scale(0.100000,-0.100000)"
fill="#000000" stroke="none">
<path d="M3197 13389 c-74 -11 -236 -61 -319 -98 -35 -16 -88 -48 -116 -70
-76 -60 -173 -121 -192 -121 -10 0 -48 -17 -86 -37 -81 -45 -236 -193 -280
-268 -27 -47 -29 -57 -32 -186 -4 -147 9 -282 36 -363 14 -43 21 -51 42 -51
22 -1 25 -5 22 -32 -2 -18 7 -55 19 -83 l22 -51 -32 -117 c-18 -64 -44 -141
-58 -171 -20 -48 -25 -77 -30 -201 -17 -436 79 -819 256 -1011 96 -105 148
-113 191 -29 38 75 41 73 282 -250 80 -107 188 -246 242 -308 192 -225 337
-451 397 -622 21 -58 47 -130 57 -160 11 -30 26 -81 32 -114 28 -140 316 -635
493 -849 22 -27 66 -67 96 -90 31 -23 95 -81 143 -130 71 -72 96 -107 132
-181 56 -114 130 -224 197 -296 28 -30 69 -80 91 -110 61 -83 268 -284 403
-391 142 -113 174 -148 220 -239 19 -37 68 -126 108 -197 106 -183 181 -335
216 -435 52 -146 134 -317 238 -494 106 -181 117 -204 132 -274 23 -106 64
-168 151 -230 30 -22 69 -126 70 -186 0 -82 37 -243 71 -311 37 -73 34 -109
-9 -118 -15 -4 -61 -15 -103 -26 -41 -10 -91 -19 -110 -19 -52 -1 -107 -31
-184 -99 -105 -94 -169 -126 -330 -168 -66 -17 -83 -18 -201 -8 -71 7 -87 5
-130 -15 -39 -18 -77 -24 -190 -30 -162 -8 -206 -25 -242 -89 -25 -46 -49
-144 -60 -246 -10 -90 -8 -105 18 -105 31 0 45 24 63 108 19 86 49 132 87 132
24 0 22 -16 -11 -82 -26 -50 -24 -61 13 -82 42 -26 207 -32 448 -17 102 6 286
14 410 17 124 3 275 12 335 19 61 8 151 17 200 21 l90 7 -45 -49 c-102 -110
-150 -207 -150 -305 0 -88 17 -88 98 2 143 158 195 196 299 220 55 13 113 0
113 -26 0 -21 -59 -95 -76 -95 -12 0 -15 -6 -10 -23 3 -12 6 -37 6 -55 0 -41
19 -49 64 -28 19 9 43 16 54 16 27 0 62 -30 67 -59 8 -45 30 -48 160 -19 33 7
65 16 72 21 7 4 37 -5 70 -22 51 -27 63 -29 103 -22 68 14 303 29 600 41 347
13 428 19 469 36 28 12 56 12 167 3 99 -9 144 -9 178 0 59 15 496 15 602 0 94
-13 146 -7 175 22 37 37 88 51 174 49 44 -2 116 -3 160 -4 l79 -1 12 60 c7 33
17 110 24 170 7 61 16 120 21 133 31 81 136 -66 155 -215 4 -29 10 -53 14 -53
14 0 49 46 56 75 4 17 17 54 30 83 l24 54 -24 31 c-12 18 -30 53 -40 79 -20
55 -83 124 -133 145 -20 8 -66 17 -103 20 -66 6 -71 4 -156 -39 -104 -53 -224
-98 -262 -98 -24 0 -17 10 75 103 55 56 107 116 114 132 8 17 29 38 48 47 55
28 171 257 238 473 19 61 28 72 127 147 90 69 113 75 317 87 154 8 175 18 184
88 3 27 10 58 16 71 5 13 9 33 9 46 0 39 21 86 38 86 10 0 37 -8 62 -17 36
-13 73 -16 185 -14 223 5 236 5 310 -3 74 -7 107 2 129 36 8 13 5 22 -13 42
-12 13 -21 32 -19 42 4 24 44 44 90 44 48 0 308 -89 534 -183 103 -43 208 -80
243 -86 33 -5 65 -13 71 -16 5 -3 46 -12 90 -20 58 -10 97 -24 138 -49 36 -22
156 -69 322 -125 146 -49 337 -119 425 -156 145 -61 163 -66 191 -56 38 14 62
6 229 -74 172 -82 294 -121 468 -151 l152 -26 96 32 96 32 59 -26 c95 -42 201
-58 374 -59 99 0 163 4 177 11 31 17 119 15 155 -4 34 -18 145 -26 598 -44
275 -11 434 -24 478 -41 18 -7 41 -6 74 2 39 10 80 10 213 -2 131 -11 165 -12
165 -2 0 7 -12 42 -26 77 -46 115 -76 139 -309 246 -49 23 -105 53 -123 67
-37 28 -89 50 -277 118 -187 67 -471 187 -765 325 -169 79 -583 260 -668 292
-38 14 -65 34 -99 74 -42 48 -68 65 -223 143 -96 48 -190 93 -207 99 -18 6
-33 17 -33 25 0 7 -11 36 -25 62 -25 51 -22 64 17 65 21 0 48 37 48 65 0 34
-86 105 -127 105 -41 0 -71 22 -97 71 -34 62 -143 139 -198 139 -41 0 -131 55
-196 120 -22 22 -44 40 -50 40 -5 0 -34 16 -63 36 -30 20 -74 43 -99 51 -25 8
-116 48 -203 89 -87 41 -161 74 -165 74 -5 0 -21 14 -37 30 -16 17 -34 30 -40
30 -6 0 -42 20 -79 45 -54 35 -78 45 -110 45 -23 0 -74 7 -114 15 -75 16 -83
15 -222 -15 -79 -18 -132 -2 -165 50 -13 21 -29 41 -34 44 -5 4 -15 23 -22 44
-6 20 -38 75 -69 122 -169 249 -195 301 -155 316 8 4 15 10 15 15 0 12 -202
370 -342 606 -192 322 -383 538 -748 845 -139 118 -217 192 -314 303 -240 273
-616 603 -926 813 -95 64 -262 148 -321 161 -73 17 -161 61 -212 108 -72 67
-184 113 -202 83 -11 -18 -43 -11 -90 19 -28 17 -67 32 -98 36 -29 4 -97 17
-152 30 -55 13 -143 29 -195 35 -52 6 -126 20 -165 30 -38 11 -126 28 -195 39
-129 21 -166 31 -260 74 -30 14 -100 44 -155 67 -112 47 -514 246 -639 317
-128 72 -257 185 -380 333 -86 104 -176 198 -605 635 -184 187 -385 399 -446
470 -62 72 -139 155 -171 185 -87 82 -440 346 -547 410 -50 30 -107 65 -126
77 -37 24 -105 49 -331 121 -157 51 -330 85 -490 97 -47 4 -116 13 -153 21
-75 15 -333 17 -430 3z m5177 -8151 c111 -14 136 -33 136 -101 0 -25 9 -73 20
-108 10 -35 24 -93 30 -129 16 -93 24 -364 15 -511 l-7 -127 -99 -46 c-74 -35
-99 -52 -99 -66 0 -13 -15 -26 -47 -40 -27 -12 -68 -38 -93 -59 -25 -21 -63
-47 -85 -59 -22 -11 -49 -29 -59 -41 -16 -17 -30 -21 -80 -21 -63 1 -142 13
-153 23 -3 4 -10 50 -15 104 -9 88 -8 98 8 110 10 7 21 13 24 13 7 0 28 -47
52 -115 11 -32 19 -40 38 -40 23 0 25 4 28 59 5 98 -20 156 -95 222 -113 100
-116 138 -21 266 65 85 82 127 92 228 13 126 29 205 48 245 31 61 96 142 141
175 47 34 77 37 221 18z m-710 -1078 c15 -5 31 -22 37 -37 7 -16 29 -66 51
-112 21 -46 36 -87 32 -90 -3 -3 -69 -6 -146 -6 -157 0 -168 5 -168 75 0 43
26 149 42 167 13 15 114 18 152 3z"/>
</g>
</svg>
